<svg id="Vrstva_1" data-name="Vrstva 1" xmlns="http://www.w3.org/2000/svg" width="130" height="36" viewBox="0 0 532.04 144.88"><defs><style>.cls-1,.cls-2{fill:#ffffff;}.cls-2{fill-rule:evenodd;}</style></defs><title>ProSpanek_b_bez_payoffu</title><path class="cls-1" d="M133.39,257.45a52.45,52.45,0,0,1-6.12-.4v26.06H110.1V217.78c5.82-2.37,14.31-3.95,23.88-3.95,21.91,0,30.5,9.87,30.5,21.91,0,12.23-9.08,21.71-31.09,21.71m.59-34.74a21.77,21.77,0,0,0-6.71,1v24.47a34.57,34.57,0,0,0,5.93.5c10.55,0,14.21-4.84,14.21-13,0-8.49-3.66-12.93-13.43-12.93" transform="translate(-109.57 -161.42)"/><path class="cls-1" d="M204.25,239.29c-4.54-1.48-10.46-1.58-13.72-.2v44H173.85V232.48c6.12-2.47,14-3.95,26-3.95a75.8,75.8,0,0,1,7.59.4Z" transform="translate(-109.57 -161.42)"/><path class="cls-1" d="M240.46,284.49c-18.35,0-28.12-11.84-28.12-28s9.77-27.93,28.12-27.93,28,11.75,28,27.93-9.67,28-28,28m0-46.48c-8.58,0-11.15,8.58-11.15,18.35s2.66,18,11.15,18,11-8.19,11-18-2.46-18.35-11-18.35" transform="translate(-109.57 -161.42)"/><path class="cls-1" d="M296.91,284.49c-9.48,0-17-1.68-21.32-3.95l4.24-10.85a31.88,31.88,0,0,0,13.62,3.15c7.21,0,12.05-3.55,12.05-8.88,0-12.63-28.23-8.38-28.23-29,0-11.55,10.16-21.12,25.86-21.12,8.58,0,15.1,2,18.75,3.95l-3.95,9.67a27.55,27.55,0,0,0-12.34-3.06c-6.71,0-11.15,3.45-11.15,8.59,0,12.73,29.51,7.49,29.51,29.9,0,12.23-11.15,21.61-27,21.61" transform="translate(-109.57 -161.42)"/><path class="cls-1" d="M360.56,284.29a39.91,39.91,0,0,1-9.67-1v23H334.31V232.48c5.23-2.17,12.53-3.95,23.29-3.95,18.95,0,30.69,9.77,30.69,27.54,0,17.17-11.35,28.22-27.73,28.22m-3.26-46.88a17.49,17.49,0,0,0-6.41,1.09v36.22a21.4,21.4,0,0,0,5.62.69c9.67,0,14.81-6.91,14.81-19.15s-3.75-18.85-14-18.85" transform="translate(-109.57 -161.42)"/><path class="cls-1" d="M422.83,284.49c-17.87,0-26.95-6-26.95-16.87,0-14,16.39-17.87,35.43-19.45v-2.66c0-5.92-4.63-7.7-11.64-7.7A49.38,49.38,0,0,0,403.28,241l-3.55-8.49a68.3,68.3,0,0,1,23.1-3.95c14,0,24.17,5.23,24.17,19.54v32.47c-5.13,2.37-13.62,3.95-24.17,3.95m8.48-29.61c-11.64,1.09-19.64,3.06-19.64,12.14,0,6.42,4.64,9.18,12.14,9.18a18.06,18.06,0,0,0,7.5-1.38Zm-5.43-30.49h-9.17l8.19-14.12c4.93-2.66,14.31-2.86,15.79.4Z" transform="translate(-109.57 -161.42)"/><path class="cls-1" d="M494.37,283.11v-37.4c0-5.53-4.73-7.9-10.85-7.9a24,24,0,0,0-7.8,1.18v44.12H459V232.48c5.92-2.27,15-3.95,25.07-3.95,17.37,0,26.94,5.33,26.94,17v37.6Z" transform="translate(-109.57 -161.42)"/><path class="cls-1" d="M537.1,261.59c1.28,8.39,6.51,12.64,16,12.64,7.3,0,13.52-1.48,16.87-3l3.46,9.27c-4.45,1.88-11.75,3.95-22.11,3.95-19.24,0-30.2-10.86-30.2-28.13,0-16.87,10.36-27.83,28-27.83S575.49,239,575.49,257Zm11.35-24.27c-7.4,0-13,5.62-12.54,17.07l23.79-3.06c0-9.47-4.24-14-11.25-14" transform="translate(-109.57 -161.42)"/><polygon class="cls-1" points="512.99 121.69 493.05 93.36 492.86 93.36 492.86 121.69 476.28 121.69 476.28 44.22 492.86 44.22 492.86 91.49 493.05 91.49 512.2 68.5 529.47 68.5 508.25 91.49 532.04 121.69 512.99 121.69"/><path class="cls-2" d="M109.57,187.81c37.59,10.11,77,12.4,114,12.09,43.67-.37,86-7.91,127.61-18.78,30.54-8,59.46-17.94,91.79-19.6,29.62-1.53,64,15.09,89.85,27.83,7.44,3.67,18.19,9.88,12.84,17.11-4.63,6.24-14.81.15-22-4.68C498,184.55,469,173.19,443.56,172.7a172.74,172.74,0,0,0-41.73,4.44c-33.39,7.91-61.13,17.94-97,24-62,10.38-125.45,16.31-185.11-7.08a32.75,32.75,0,0,1-10.15-6.2" transform="translate(-109.57 -161.42)"/><path class="cls-2" d="M641.5,194.59c-7.31.43-12.79-4.5-17.23-6.56-19.2-8.95-34.25-9.36-48.85,6.4-1.32,1.44-2.57,3-3.93,4.33-3.12,3-6.07,9.69-10.53,6.28-3.42-2.61-1-9.49,1.1-13.37,8.52-16,20.34-23.77,37.21-24.53,15.69-.71,33.44,10.74,42.23,27.45" transform="translate(-109.57 -161.42)"/></svg>